<?xml version="1.0" encoding="UTF-8"?>
<svg xmlns="http://www.w3.org/2000/svg" xmlns:xlink="http://www.w3.org/1999/xlink" version="1.1" viewBox="0 0 20.39 344.79">
  <defs>
    <style>
      .cls-1 {
        fill: url(#linear-gradient);
      }
    </style>
    <linearGradient id="linear-gradient" x1="13.07" y1="2.03" x2="13.07" y2="179.81" gradientTransform="translate(0 346) scale(1 -1)" gradientUnits="userSpaceOnUse">
      <stop offset="0" stop-color="#231f20" stop-opacity="0"/>
      <stop offset="1" stop-color="#231f20"/>
    </linearGradient>
  </defs>
  <!-- Generator: Adobe Illustrator 28.6.0, SVG Export Plug-In . SVG Version: 1.2.0 Build 709)  -->
  <g>
    <g id="Layer_1">
      <g id="Layer_1-2" data-name="Layer_1">
        <polygon class="cls-1" points="26.13 2 26.13 0 2 0 0 0 0 2 0 20.39 0 22.39 0 40.77 0 42.77 0 61.16 0 63.16 0 81.54 0 83.54 0 101.93 0 103.93 0 122.31 0 124.31 0 142.7 0 144.7 0 163.09 0 165.09 0 183.47 0 185.47 0 203.86 0 205.86 0 224.24 0 226.24 0 244.63 0 246.63 0 265.01 0 267.01 0 285.4 0 287.4 0 305.78 0 307.78 0 326.17 0 328.17 0 344.79 2 344.79 2 328.17 26.13 328.17 26.13 326.17 2 326.17 2 307.78 26.13 307.78 26.13 305.78 2 305.78 2 287.4 26.13 287.4 26.13 285.4 2 285.4 2 267.01 26.13 267.01 26.13 265.01 2 265.01 2 246.63 26.13 246.63 26.13 244.63 2 244.63 2 226.24 26.13 226.24 26.13 224.24 2 224.24 2 205.86 26.13 205.86 26.13 203.86 2 203.86 2 185.47 26.13 185.47 26.13 183.47 2 183.47 2 165.09 26.13 165.09 26.13 163.09 2 163.09 2 144.7 26.13 144.7 26.13 142.7 2 142.7 2 124.31 26.13 124.31 26.13 122.31 2 122.31 2 103.93 26.13 103.93 26.13 101.93 2 101.93 2 83.54 26.13 83.54 26.13 81.54 2 81.54 2 63.16 26.13 63.16 26.13 61.16 2 61.16 2 42.77 26.13 42.77 26.13 40.77 2 40.77 2 22.39 26.13 22.39 26.13 20.39 2 20.39 2 2 26.13 2"/>
      </g>
    </g>
  </g>
</svg>