<svg xmlns="http://www.w3.org/2000/svg" viewBox="0 0 542.36 288.98"><defs><style>.cls-1{fill:#0e09c9;}.cls-2,.cls-3,.cls-4{fill:none;stroke:#0e09c9;stroke-linecap:round;}.cls-2,.cls-3{stroke-miterlimit:10;}.cls-2{stroke-width:8px;}.cls-3,.cls-4{stroke-width:7px;}.cls-4{stroke-linejoin:round;}</style></defs><g id="Layer_2" data-name="Layer 2"><g id="Logo"><path class="cls-1" d="M218.78,192.91c-9.58.63-17.41-4.77-24.85-15.14-8.78-12.26-12.09-28-24.19-38.14-35.32-29.74-83.92-5.06-92.33,37.44C74,139.68,61.41,88,55.18,65.79S46.9,32.81,34.41,24C10.74,9.3-13.26,43.67,8.58,60.78A130.32,130.32,0,0,1,28.35,80.44c18,22.1,28,48.95,33,77.19,5.9,33.38,6.75,68,4.63,101.91,0,6.47-2.05,13-1.17,19.43a13,13,0,0,0,19.52,8.08c8.62-6.22,9.58-12.67,20.71-14.32a26.22,26.22,0,0,1,10,.75c13.82,5.32,22.75-15.88,9.33-22A50.11,50.11,0,0,1,103,231.73c-20.84-31.48-3.81-96.92,42.21-83.62,14.94,5.09,18.53,23.32,17.87,37.57-1.27,13.94-9.8,26-19,36.32a14.81,14.81,0,0,0-2.42,3.54c-6.21,13.38,12.36,26.79,23,15.86a27.43,27.43,0,0,0,2.54-3.57c12.33-17.62,23.89-22,49.95-17.27a15.75,15.75,0,0,0,8-.14C239,215.6,236.55,191.36,218.78,192.91ZM24,50.44a8.28,8.28,0,1,1,6.51-6.5A8.29,8.29,0,0,1,24,50.44Z"/><path class="cls-1" d="M205.15,42.47C188.07,45,178.55,77.53,184.3,117s23.86,66.27,40.94,63.78S251.9,147.42,246.15,108,222.23,40,205.15,42.47Zm23.65,70.19-.5.08c-5.51.8-8.32,12.88-6.76,23.55a3,3,0,0,1-3.14,3.44,3.08,3.08,0,0,1-2.82-2.68l0,.11c-1.56-10.67-7.7-21.45-13.21-20.65l-.11,0a3,3,0,0,1-3.4-3.49,3,3,0,0,1,2.64-2.46c5.52-.81,8.32-12.89,6.77-23.56h0a3,3,0,0,1,3.13-3.43,3.07,3.07,0,0,1,2.82,2.67l0-.11c1.56,10.68,7.7,21.45,13.22,20.65l.38-.06a3.07,3.07,0,0,1,3.37,1.94A3,3,0,0,1,228.8,112.66Z"/><path class="cls-1" d="M200.33,228a29,29,0,1,0,29,29A29,29,0,0,0,200.33,228ZM207,253.49c-3.65,3.91-3.48,10.73-5.17,13.18s-4.51,3.77-8.91,3.77c-7.31,0-9.92-8.08-9.92-15.39s6.26-17.21,17.29-17.21c14.64,0,17.83,10.17,17.83,10.17C213.56,247.75,210.69,249.57,207,253.49Z"/><path class="cls-2" d="M243.35,216.12c3.41,21.72.15,43.3-.52,56.87"/><path class="cls-1" d="M241.93,269.09c4.09-1.23,8.09-2.33,12.17-3.38s8.17-2,12.32-2.86,8.34-1.64,12.64-2.22a103.61,103.61,0,0,1,13.33-1h.05a7.84,7.84,0,1,1,.09,15.67,8.15,8.15,0,0,1-1.22-.09,89.75,89.75,0,0,0-11.39-.85c-3.93-.09-7.95.05-12,.24s-8.08.53-12.13.91-8.13.86-12.1,1.42h-.07a4,4,0,0,1-1.72-7.81Z"/><path class="cls-1" d="M293.87,206.69l-32,12.68a6.08,6.08,0,1,1-4.49-11.31,5.73,5.73,0,0,1,.89-.28l33.53-7.64a3.44,3.44,0,0,1,2,6.55Z"/><path class="cls-1" d="M260.75,249.8l32.89-10.71a6.08,6.08,0,0,1,3.77,11.57,7.37,7.37,0,0,1-.9.22l-34.14,5.58a3.44,3.44,0,0,1-1.62-6.66Z"/><polygon class="cls-1" points="279 208.49 280.98 249.5 271.98 249.5 273.96 208.49 279 208.49"/><path class="cls-1" d="M309.05,198.34c.77-.15,1.3-.23,1.94-.32s1.21-.15,1.82-.2c1.21-.12,2.41-.18,3.63-.21a47.36,47.36,0,0,1,7.31.4,35.84,35.84,0,0,1,14.38,5,30.4,30.4,0,0,1,10.73,11.66,42,42,0,0,1,4.33,14.69,61.16,61.16,0,0,1,.43,7.44,43.35,43.35,0,0,1-.69,7.72,35.35,35.35,0,0,1-6.42,15,36.54,36.54,0,0,1-12.73,10.64,46,46,0,0,1-7.51,3.08c-1.28.41-2.59.75-3.92,1-.66.15-1.34.28-2,.4l-1.07.16-.57.07-.31,0-.44,0a8.55,8.55,0,0,1-.56-17.1c-.07,0-.05,0,0,0h.37l.59,0c.4,0,.83,0,1.26-.08.86-.08,1.74-.2,2.6-.36a28.29,28.29,0,0,0,5.05-1.38,22,22,0,0,0,8.26-5.44,21.41,21.41,0,0,0,4.82-8.92,37.25,37.25,0,0,0,1.17-11.38,31.17,31.17,0,0,0-2.21-11,19.52,19.52,0,0,0-6.5-8.29,26.16,26.16,0,0,0-10.41-4.37,39.25,39.25,0,0,0-6-.69c-1,0-2,0-3,0-.5,0-1,0-1.5.08s-1,.09-1.37.13l-.21,0a3.95,3.95,0,0,1-1.21-7.8Z"/><line class="cls-3" x1="315.24" y1="201.83" x2="316.22" y2="251.79"/><path class="cls-1" d="M356.12,262.9a58.23,58.23,0,0,0,1.76-6.93c.5-2.47.93-5,1.33-7.6.79-5.15,1.43-10.39,2-15.65s1.07-10.55,1.52-15.85.85-10.61,1.18-15.9l0-.26a3.48,3.48,0,0,1,6.15-2c3.45,4.17,6.55,8.36,9.57,12.73s5.82,8.83,8.42,13.47a118.79,118.79,0,0,1,7,14.46,67.74,67.74,0,0,1,4.29,15.83,3.5,3.5,0,0,1-6.94.93v-.05a60.64,60.64,0,0,0-3.86-14.15A111.52,111.52,0,0,0,382,228.34c-2.47-4.42-5.2-8.73-8.08-12.93s-6-8.34-9.14-12.17l6.17-2.27c.31,5.39.55,10.74.74,16.12s.34,10.75.4,16.15.06,10.81-.11,16.29c-.09,2.74-.22,5.49-.44,8.3a72.06,72.06,0,0,1-1.15,8.81v.07a7.37,7.37,0,1,1-14.46-2.9A8.66,8.66,0,0,1,356.12,262.9Z"/><line class="cls-4" x1="367.93" y1="244.55" x2="388.3" y2="236.21"/><path class="cls-1" d="M407.76,272.21a63,63,0,0,1-.42-15.5,96,96,0,0,1,2.58-15.08q1.86-7.38,4.44-14.48c1.72-4.73,3.62-9.37,5.66-14a289.15,289.15,0,0,1,13.77-26.58q3.76-6.47,7.81-12.76c1.34-2.11,2.72-4.19,4.12-6.27l2.14-3.12c.74-1.05,1.42-2,2.27-3.18l.08-.11a10.14,10.14,0,1,1,16.29,12.07,11.1,11.1,0,0,1-.76.91c-.69.73-1.51,1.66-2.26,2.51l-2.3,2.65q-2.3,2.69-4.53,5.43-4.48,5.49-8.73,11.18a271.25,271.25,0,0,0-15.8,23.52q-3.58,6.09-6.75,12.37t-5.59,12.82a86.53,86.53,0,0,0-3.87,13.27,55.12,55.12,0,0,0-1.19,13.51v.06a3.51,3.51,0,0,1-7,.73Z"/><path class="cls-1" d="M408.26,214.66c.12.92.34,2.06.54,3.1s.45,2.13.7,3.19a63.67,63.67,0,0,0,1.82,6.22,34.55,34.55,0,0,0,2.5,5.73,14.12,14.12,0,0,0,3.43,4.35l.2.15a2.81,2.81,0,0,1-2.83,4.81,19.75,19.75,0,0,1-6.54-5.09,42.54,42.54,0,0,1-4.51-6.16,71.47,71.47,0,0,1-3.58-6.51c-.54-1.11-1.06-2.22-1.55-3.35s-1-2.21-1.44-3.53l-.07-.19a5.86,5.86,0,1,1,11.33-2.72Z"/><path class="cls-1" d="M362.46,173.21c-2.61-25.31-21.66-25.22-52.7-10.7-25.17,11.77-29-21.71-30.91-33.07-1.85-10.8-5.63-45-6.39-70.42C272,43.55,278.85-5.75,250.52.55c-35.25,7.85-2.25,61.92,2.7,89.37,3.64,20.24,5,46.54,2.54,66.13-2.4,19.42-8.56,32.19-4.3,39.13,9,14.68,38.62-6,56-5.76C332.58,189.71,364.34,191.46,362.46,173.21Zm-80.09,7.71c-.52,5.37-16.42,12.62-19.13,5.59-1.91-5,.74-19.44,7.39-20.61S282.89,175.55,282.37,180.92Z"/><path class="cls-1" d="M358.62,95.44c-14.16,2.52-14.92,14.65-24.61,16s-19.75-.69-21.32-23.86,10-52.73,9.79-58.41-.79-17-19.18-17c-15.84,0-15.65,11.74-15.26,21.52s1.18,34.43,2.55,51.65,2.54,27.11,6.26,44.29c3.69,17,11.74,18.39,18,18.39s12.39-6.81,24.13-9c9-1.65,16.95,7.31,28.47,4.36,13.48-3.45,22.26-14.18,20.19-27.87S372.78,92.92,358.62,95.44Zm8.07,30.36c-4.63.91-8.48-.4-9.16-5.49s4.25-7.42,7.46-7.89,5.58.2,6.61,4.17S371.33,124.88,366.69,125.8Z"/><path class="cls-1" d="M533.59,28.42c-8.09-6.78-27.26-8-38.87,1.31-11.45,9.17-16.44,24-23.48,35s-20.35,22.7-38.09,23.74S405.68,72,399,54.51s-15.62-22.67-19.58-24.44-15.89-4-23.49,5.19-8.16,22.77,0,33.6c7.44,9.91,21.75,9.72,29.74,13.63s24.79,23.93,22.18,46.11-24.26,24.78-32.09,34.17-6.78,21.13-1.57,27.65,20.09,11,34.7-1.82,28-49.43,45.39-70.18,57.65-29.48,79.31-50.08C548.42,54.22,541.67,35.21,533.59,28.42ZM377.74,59.11c-2.71,2.5-13.46-.53-14.13-7-.53-5.13,4.44-9.24,8.85-7.92C378.12,45.88,380.45,56.61,377.74,59.11Zm12,125a7.39,7.39,0,1,1,7.38-7.39A7.39,7.39,0,0,1,389.74,184.13ZM521.2,52.07c-5.13,5.67-13.62,5.41-15.3,2.15s-.19-11,6.34-14.26C519.39,36.44,527.81,44.76,521.2,52.07Z"/><path class="cls-1" d="M158,75.17c.22,4.68-1.63,7.47-6.3,9.28a44.37,44.37,0,0,0-6.8,2.76A23.47,23.47,0,0,0,135.37,98c-1.78,4-5.34,6.23-10.29,6.09-4.14-.11-8.14-2.93-9.28-6.55a9.78,9.78,0,0,1,.36-7.3,7.24,7.24,0,0,0-2.62-8.52c-1.31-.88-2.58-.4-2.88,1.11a9.13,9.13,0,0,0,0,1.57c-.19,6.68-6.8,10.94-13.69,8.81-6.57-2-8.93-7.66-6.41-13.67,2.15-5.11,2.41-10.39-.68-15.39-1.65-2.69-3.5-5.37-3.08-8.75.77-6.25,8.46-10.22,14.59-7.39a20.19,20.19,0,0,1,4.55,3,8.34,8.34,0,0,0,9.08.64c1.92-1.24,1.59-3.67-.69-4.92-4.13-2.26-6.14-5.63-5.93-10.07a9,9,0,0,1,6.31-8.23c4.62-1.44,8.89-1,12.23,2.46,1.93,2,3.52,4.26,5.4,6.31a26.39,26.39,0,0,0,3.83,3.38,6.08,6.08,0,0,0,4.8,1c7.66-1.16,14.18,4,13.59,10.78-.3,3.48-2.38,6-5.77,7.49-1.84.83-3.77,1.5-5.66,2.23-2.2.85-3.56,4.24-2.45,6.13.72,1.25,1.61.62,2.49.16,4.78-2.51,10.35-1.36,13.19,2.85A21.45,21.45,0,0,1,158,75.17ZM127.18,51.84a12.75,12.75,0,0,0-7.69,5.09,2.62,2.62,0,0,0,.4,2.48c1.18,1.46,2.93,1.1,4.54.52,2.91-1,5.42-2.48,5.92-5.64C130.62,52.55,129.58,51.59,127.18,51.84Zm7.22,21.7c-.17-.63-.33-1.26-.52-1.88-.45-1.38-1.45-2.57-3-2.11a4.42,4.42,0,0,0-2.35,2.58c-.93,2.73.34,5.12,1.9,7.35.59.86,1.38.71,2.16.07C134.63,77.88,134.22,75.66,134.4,73.54Zm-24.17-5.27c-1.57.2-2.28,1.51-1.37,2.83,1.69,2.45,4.4,3.56,7.32,4.26,1.75.41,2.63-.55,2.17-2.18C117.53,70.32,113.43,67.85,110.23,68.27Z"/></g></g></svg>