<svg xmlns="http://www.w3.org/2000/svg" viewBox="0 0 180.49 295.49"><defs><style>.cls-1{fill:#0e09c9;}</style></defs><g id="Layer_2" data-name="Layer 2"><g id="Logo"><path class="cls-1" d="M178.34,152.18c-3.09-4.3-7.33-5.58-12.18-3.74a22.89,22.89,0,0,0-7.63,4.62,187.79,187.79,0,0,1-15.7,12.74c-5.64,4.25-9.65,2.81-10.84-4.16a74.57,74.57,0,0,1-1.19-17c.89-14.23,1.8-28.47,3-42.68.49-5.58,1.82-11.2,6.41-15.07a42.38,42.38,0,0,1,11.48-7.13c5.37-2.16,10.82-4.07,16.27-6a18,18,0,0,0,8-5.54c3.33-4,2.73-9-1.37-12.18a15.7,15.7,0,0,0-6.22-2.93,79.27,79.27,0,0,1-28.19-12.23c-.71-.49-1.5-.86-2.25-1.29-10.93-6.32-20.88-13.82-29-23.6-3.71-4.45-7.55-8.8-12.29-12.19C92.76,1,88.36-1,83.67.51c-4.85,1.55-7.5,5.55-8.21,10.64-.66,4.65,1.07,8.28,4.8,11.06C85,25.73,90.42,27.15,96.2,27.56a38.92,38.92,0,0,1,5.73.61c6.56,1.45,9.44,8.1,6.16,14a22.28,22.28,0,0,1-5.56,6.21A154.54,154.54,0,0,1,63.21,71.79c-12.16,5.07-27.28,3.3-36.41-8.28a22.55,22.55,0,0,0-12.78-8,10.87,10.87,0,0,0-12.53,6C.17,64.28.56,67.21.92,70.07c.75,6,1.49,12.06,2.5,18.05,1.78,10.48,3,21,2.45,31.65-.38,7.43-1,14.82-3.74,21.84a24.85,24.85,0,0,0-2.07,11v2.32c.12,8.53,6.5,14.16,15,13.22a8.81,8.81,0,0,0,8.11-8.65A30,30,0,0,0,21,147.07c-1.43-3.68-2.93-7.37-3.42-11.33-.67-5.46,2.31-8.67,7.78-8.58a14.43,14.43,0,0,1,5.09,1c3.58,1.42,7.25,2.68,10.68,4.39,9.82,4.91,19.82,9.54,29.21,15.18,9.91,5.94,14,16.07,13.2,27-1.64,23.83-7.66,46.74-16.84,68.84-3.07,7.38-5.51,15-6.27,23.1s.2,15.39,6,21.54,18.54,10.45,29.93,4.5c9-4.7,13.55-12,14.17-21.85.53-8.41-1.47-16.47-3.92-24.43-3.14-10.24-6.28-20.48-8.49-31a15.38,15.38,0,0,1,7.5-16.69c6.84-4,13.55-8.17,20.56-11.79,12.39-6.41,24.54-13.42,39-14.43a19,19,0,0,0,13-6.87C181.22,162.08,181.27,156.25,178.34,152.18ZM70.81,137.57a24.78,24.78,0,0,1-8.09-2c-13.45-5.49-25.94-12.44-36.92-22.2-6.37-5.68-8.68-12-6.51-20.05,1.72-6.43,6.49-9.49,13-8.45A63.18,63.18,0,0,1,57.89,95c5.18,3.49,10.79,6.36,15.5,10.55,5.92,5.26,10.87,11,10.56,18.88C83.93,134,79.62,138.06,70.81,137.57Zm14.4,142.08a10.18,10.18,0,1,1,10.17-10.17A10.17,10.17,0,0,1,85.21,279.65Zm39.23-142.93q-.39,15.87-1.15,31.74c-.58,11.81-8.9,15.91-16.67,17.8-3.37.82-6.25-.57-8.17-3.54a20.26,20.26,0,0,1-3-10.41c-.76-16.86.1-33.68,1.22-50.49a15.7,15.7,0,0,1,6.14-12A58.56,58.56,0,0,1,110,105c6-3.31,12.57.11,13.11,6.88C123.78,120.17,124.9,128.4,124.44,136.72ZM109.16,91.15A63.62,63.62,0,0,1,87.48,96.6c-7.24.6-11.3-4.18-15.13-9.07-1.84-2.36-.26-4.62,1.36-6.48a68.72,68.72,0,0,1,10.55-9.84,189.63,189.63,0,0,1,38.33-22.34c9.37-4.1,18.31-.5,21.6,8.84,2.5,7.11,1.33,10.28-3.73,13.9C130.44,78.79,120.46,86,109.16,91.15Z"/></g></g></svg>