<?xml version="1.0" encoding="UTF-8"?>
<svg id="Layer_1" xmlns="http://www.w3.org/2000/svg" version="1.1" viewBox="0 0 1024 901.6">
  <!-- Generator: Adobe Illustrator 29.3.1, SVG Export Plug-In . SVG Version: 2.1.0 Build 151)  -->
  <defs>
    <style>
      .st0 {
        fill: #1185fe;
      }
    </style>
  </defs>
  <path class="st0" d="M222,60.7c117.4,88.1,243.7,266.8,290,362.7,46.4-95.9,172.6-274.6,290-362.7,84.7-63.6,222-112.8,222,43.8s-17.9,262.7-28.4,300.3c-36.6,130.6-169.7,163.9-288.2,143.8,207.1,35.2,259.8,152,146,268.7-216.1,221.7-310.6-55.6-334.8-126.7-4.4-13-6.5-19.1-6.5-13.9,0-5.2-2.1.9-6.5,13.9-24.2,71.1-118.7,348.4-334.8,126.7-113.8-116.8-61.1-233.5,146-268.7-118.5,20.2-251.7-13.2-288.2-143.8C17.9,367.2,0,135.7,0,104.5,0-52.1,137.3-2.9,222,60.7Z"/>
</svg>