<?xml version="1.0" encoding="UTF-8"?>
<svg xmlns="http://www.w3.org/2000/svg" version="1.1" viewBox="0 0 347.58 173.02">
  <defs>
    <style>
      .cls-1, .cls-2, .cls-3, .cls-4 {
        fill: none;
        stroke: #000;
        stroke-linecap: round;
        stroke-linejoin: round;
      }

      .cls-1, .cls-4 {
        stroke-width: 3px;
      }

      .cls-2, .cls-3 {
        stroke-width: 2px;
      }

      .cls-2, .cls-4 {
        isolation: isolate;
        opacity: .1;
      }

      .cls-5 {
        font-family: Baskerville-Bold, Baskerville;
        font-size: 82px;
        font-weight: 700;
      }

      .cls-5, .cls-6 {
        fill: #231f20;
      }

      .cls-7 {
        letter-spacing: .51em;
      }

      .cls-8 {
        font-family: Termina-Demi, Termina;
        font-size: 22px;
        font-weight: 300;
      }

      .cls-9 {
        display: none;
      }
    </style>
  </defs>
  <!-- Generator: Adobe Illustrator 28.6.0, SVG Export Plug-In . SVG Version: 1.2.0 Build 709)  -->
  <g>
    <g id="Layer_4" class="cls-9">
      <text class="cls-5" transform="translate(40.56 132.89)"><tspan x="0" y="0">Holi</tspan><tspan x="168.28" y="0">-</tspan></text>
      <text class="cls-5" transform="translate(40.56 132.89)"><tspan x="0" y="0">Holi</tspan><tspan x="168.28" y="0">-</tspan></text>
      <text class="cls-8" transform="translate(4.69 165.42)"><tspan class="cls-7" x="0" y="0">ICHTCHENK</tspan><tspan x="269.73" y="0">O</tspan></text>
    </g>
    <g id="Layer_5">
      <g>
        <path class="cls-6" d="M124.13,5.14v81.2h-32.02v-43.96l-26.68,33.29h-1.62l-26.68-33.29v101.95H5.81V5.14h35.5l24.13,32.13L89.8,5.14h34.34,0Z"/>
        <path class="cls-6" d="M302.37,44.47l36.08,41.88h-38.28l-17.05-20.76-17.05,20.76h-36.07l35.96-41.41L231.16,5.15h38.28l15.89,19.37,15.89-19.37h36.08l-34.92,39.32h-.01Z"/>
        <path class="cls-6" d="M179.21,8.16l-45.11,78.18c7.83-4.01,23.44-10.68,44.18-10.88,21.77-.2,38.14,6.84,46.03,10.88L179.21,8.16Z"/>
        <g>
          <path class="cls-6" d="M64.1,118.3v14.93c0,2.54.44,4.28,1.32,5.23s2.78,1.42,5.69,1.42v4.44h-28.31v-4.44c2.86,0,4.76-.45,5.71-1.34.95-.89,1.42-2.66,1.42-5.31v-32.11c0-2.56-.45-4.31-1.34-5.25-.89-.93-2.82-1.4-5.79-1.4v-4.44h28.31v4.44c-2.83,0-4.7.46-5.63,1.38-.92.92-1.38,2.68-1.38,5.26v12.17h22.3v-12.17c0-2.51-.43-4.24-1.3-5.21-.87-.96-2.73-1.44-5.59-1.44v-4.44h28.23v4.44c-2.88,0-4.8.44-5.75,1.32-.95.88-1.42,2.66-1.42,5.33v32.11c0,2.59.45,4.34,1.36,5.26.91.92,2.84,1.38,5.81,1.38v4.44h-28.23v-4.44c2.8,0,4.65-.47,5.55-1.4.89-.93,1.34-2.68,1.34-5.25v-14.93h-22.3Z"/>
          <path class="cls-6" d="M110.74,127.83c0-5.5,1.95-9.81,5.85-12.93,3.9-3.12,8.61-4.68,14.13-4.68s10.09,1.52,14.09,4.54,6.01,7.4,6.01,13.11-1.96,9.74-5.89,12.95c-3.92,3.22-8.68,4.83-14.25,4.83s-10.13-1.53-14.05-4.58c-3.92-3.06-5.89-7.47-5.89-13.23ZM124.47,127.43c0,5.12.47,8.71,1.42,10.75.95,2.04,2.6,3.06,4.94,3.06,1.9,0,3.41-.85,4.54-2.56,1.13-1.71,1.7-5.35,1.7-10.93,0-5.07-.51-8.51-1.52-10.31-1.01-1.8-2.62-2.7-4.8-2.7-1.74,0-3.22.77-4.44,2.3-1.23,1.54-1.84,5-1.84,10.39Z"/>
          <path class="cls-6" d="M171.33,89.07v45.68c0,2.06.32,3.46.96,4.2.64.75,2.17,1.12,4.6,1.12v4.24h-24.38v-4.24c2.14,0,3.64-.25,4.52-.76.88-.51,1.32-2.03,1.32-4.56v-33.19c0-2.11-.34-3.52-1.02-4.22-.68-.71-2.29-1.06-4.82-1.06v-4.28l18.82-2.92Z"/>
          <path class="cls-6" d="M198.8,110.22v24.54c0,2.03.32,3.42.96,4.18.64.76,2.13,1.14,4.48,1.14v4.24h-24.5v-4.24h.92c2.27,0,3.7-.4,4.3-1.2.6-.8.9-2.17.9-4.12v-11.93c0-1.97-.31-3.36-.92-4.14-.61-.79-2.04-1.18-4.28-1.18h-.92v-4.24l19.06-3.04Z"/>
          <path class="cls-6" d="M234.59,139.76c-1.87,1.76-3.85,3.09-5.95,3.98-2.1.89-4.3,1.34-6.63,1.34-4.3,0-7.88-1.38-10.73-4.14-2.86-2.76-4.28-6.97-4.28-12.63,0-6.27,1.6-10.86,4.8-13.75,3.2-2.9,7.01-4.34,11.41-4.34,2.43,0,4.59.36,6.49,1.08,1.89.72,3.52,1.8,4.88,3.24v-12.93c0-2-.31-3.38-.94-4.14-.63-.76-2.09-1.14-4.38-1.14v-4.28l18.26-2.96v44.52c0,2.27.38,3.73,1.14,4.38.76.65,2.22.98,4.38.98v4.52c-7.79.29-13.63.83-17.5,1.6-.64-1.39-.96-3.16-.96-5.33ZM234.59,134.24v-14.89c-1.15-1.12-2.3-1.96-3.46-2.5-1.16-.55-2.32-.82-3.46-.82-2.32,0-4.06.92-5.22,2.76-1.16,1.84-1.74,4.62-1.74,8.33,0,4,.53,7.01,1.58,9.01,1.05,2,2.63,3,4.74,3,1.44,0,2.89-.45,4.34-1.34,1.46-.89,2.53-2.07,3.22-3.54Z"/>
          <path class="cls-6" d="M279.28,140.85c-1.95,1.42-3.98,2.48-6.11,3.18-2.12.71-4.34,1.06-6.67,1.06-3.07,0-5.37-.69-6.91-2.08s-2.3-3.11-2.3-5.17c0-2.91,1.53-5.49,4.6-7.73,3.07-2.24,8.62-4.72,16.66-7.45v-2.96c0-2.11-.51-3.46-1.52-4.06-1.01-.6-2.22-.9-3.6-.9-3.36,0-5.23,1.23-5.61,3.68-.27,1.68-.8,2.9-1.6,3.66-.8.76-2.04,1.14-3.72,1.14-1.52,0-2.73-.41-3.62-1.22-.89-.81-1.34-1.77-1.34-2.86,0-2.48,1.64-4.59,4.92-6.33,3.28-1.73,7.67-2.6,13.17-2.6,3.07,0,5.64.19,7.71.56,2.07.37,3.74,1.07,5,2.08,1.27,1.01,2.11,2.08,2.52,3.2.41,1.12.62,2.64.62,4.56v15.21c0,2.3.69,3.44,2.08,3.44,1.2,0,1.96-.75,2.28-2.24h3.32c-.08,2.75-1.09,4.78-3.02,6.09-1.94,1.31-4.25,1.96-6.95,1.96-4.91,0-8.22-1.41-9.93-4.24ZM278.56,136.52v-9.37c-3.71,1.55-6.13,2.95-7.27,4.2-1.13,1.25-1.7,2.55-1.7,3.88,0,1.01.33,1.93,1,2.74.67.81,1.55,1.22,2.64,1.22.96,0,1.88-.23,2.76-.68.88-.45,1.73-1.12,2.56-2Z"/>
          <path class="cls-6" d="M323.39,133l5.33-11.29c.93-2.03,1.4-3.31,1.4-3.84,0-1.41-1.13-2.12-3.4-2.12v-4.2h13.09v4.2c-1.58.16-2.69.65-3.34,1.48-.66.83-2.13,3.62-4.42,8.37l-12.81,26.59c-2.51,5.23-4.52,8.63-6.05,10.21-1.52,1.57-3.44,2.36-5.77,2.36-1.74,0-3.16-.52-4.28-1.56s-1.68-2.32-1.68-3.84c0-2.59,1.8-4.32,5.41-5.21,3.34-.77,5.54-1.64,6.63-2.6,1.08-.96,2.27-2.87,3.58-5.73l-14.25-24.46-.64-1.2c-1.07-2-1.87-3.21-2.4-3.62-.53-.41-1.46-.67-2.76-.78v-4.2h21.26v4.2c-2.11.08-3.16.63-3.16,1.64,0,.4.43,1.38,1.28,2.92l7.01,12.69Z"/>
        </g>
        <g>
          <g id="Icons" class="cls-9">
            <polygon class="cls-4" points="182.45 89.38 182.45 99.15 191.13 104.07 199.82 99.15 199.82 89.38 191.13 84.53 182.45 89.38"/>
            <polyline class="cls-4" points="182.45 89.74 191.13 94.66 199.82 89.74"/>
            <line class="cls-4" x1="191.13" y1="104.07" x2="191.13" y2="94.66"/>
          </g>
          <g id="Layer_2">
            <polyline class="cls-1" points="191.13 94.3 199.82 89.38 191.13 84.53 191.13 89.38 182.45 89.38 191.13 94.3 191.13 104.07 199.82 99.15"/>
            <line class="cls-1" x1="182.16" y1="99.37" x2="182.16" y2="89.45"/>
            <line class="cls-1" x1="190.57" y1="99.86" x2="182.26" y2="95.5"/>
            <line class="cls-1" x1="196.48" y1="91.33" x2="196.48" y2="100.54"/>
          </g>
        </g>
        <g>
          <path d="M6.76,165.42v-15.4h3.52v15.4h-3.52Z"/>
          <path d="M39.67,160.36l3.21,1.61c-1.45,2.18-4.42,3.94-8.45,3.94-5.79,0-9.55-3.06-9.55-8.19s3.76-8.19,9.7-8.19c3.87,0,6.84,1.78,8.25,3.92l-3.23,1.61c-1.1-1.72-2.77-2.49-5.06-2.49-3.65,0-6.07,1.76-6.07,5.15s2.42,5.15,6.07,5.15c2.29,0,3.98-.75,5.13-2.51Z"/>
          <path d="M74.51,150.02v15.4h-3.52v-6.27h-10.5v6.27h-3.52v-15.4h3.52v6.05h10.5v-6.05h3.52Z"/>
          <path d="M105.34,153.05h-6.73v12.37h-3.52v-12.37h-6.69v-3.04h16.94v3.04Z"/>
          <path d="M132.48,160.36l3.21,1.61c-1.45,2.18-4.42,3.94-8.45,3.94-5.79,0-9.55-3.06-9.55-8.19s3.76-8.19,9.7-8.19c3.87,0,6.84,1.78,8.25,3.92l-3.23,1.61c-1.1-1.72-2.77-2.49-5.06-2.49-3.65,0-6.07,1.76-6.07,5.15s2.42,5.15,6.07,5.15c2.29,0,3.98-.75,5.13-2.51Z"/>
          <path d="M167.32,150.02v15.4h-3.52v-6.27h-10.5v6.27h-3.52v-15.4h3.52v6.05h10.5v-6.05h3.52Z"/>
          <path d="M198.77,162.47v2.95h-15.86v-15.4h15.64v2.95h-12.15v3.17h10.14v2.95h-10.14v3.39h12.37Z"/>
          <path d="M230.8,150.02v15.4h-3.08l-11.05-11.13v11.13h-3.41v-15.4h3.74l10.39,10.56v-10.56h3.41Z"/>
          <path d="M259.87,165.42l-5.94-7.24-4.03,3.41v3.83h-3.52v-15.4h3.52v7.81l9.15-7.81h4.62l-7.17,6.07,7.59,9.33h-4.22Z"/>
          <path d="M275.5,157.72c0-5.15,3.78-8.19,9.79-8.19s9.79,3.04,9.79,8.19-3.79,8.19-9.79,8.19-9.79-3.04-9.79-8.19ZM291.5,157.72c0-3.3-2.4-5.15-6.21-5.15s-6.2,1.85-6.2,5.15,2.38,5.15,6.2,5.15,6.21-1.85,6.21-5.15Z"/>
        </g>
      </g>
    </g>
    <g id="Layer_3" class="cls-9">
      <path d="M68.26,90.24c.24.6.36,1.17.36,1.73,0,.5-.1.84-.3,1.04-.2.2-.55.3-1.04.3h-2.12c-.14,2.76-.21,7.48-.21,14.15h17.67c-.02-6.67-.1-11.39-.24-14.15h-3.07c-.26-.67-.39-1.3-.39-1.88,0-.42.1-.72.31-.91.21-.19.55-.28,1.03-.28h12.54c.24.6.36,1.17.36,1.73,0,.5-.1.84-.3,1.04-.2.2-.55.3-1.04.3h-2.41c-.14,2.76-.21,7.31-.21,13.64,0,11.16.08,18.12.24,20.88h3.37c.24.6.36,1.17.36,1.73,0,.5-.1.84-.3,1.04-.2.2-.55.3-1.04.3h-12.51c-.26-.67-.39-1.3-.39-1.88,0-.42.1-.72.31-.91.21-.19.55-.28,1.03-.28h2.12c.14-2.34.22-7.85.24-16.53h-17.67c.02,8.66.1,14.17.24,16.53h3.07c.24.6.36,1.17.36,1.73,0,.5-.1.84-.3,1.04-.2.2-.55.3-1.04.3h-12.51c-.26-.67-.39-1.3-.39-1.88,0-.42.1-.72.31-.91.21-.19.55-.28,1.03-.28h2.41c.16-2.76.24-9.84.24-21.24-.02-6.1-.1-10.53-.24-13.29h-3.37c-.26-.67-.39-1.3-.39-1.88,0-.42.1-.72.31-.91.21-.19.55-.28,1.03-.28h12.54Z"/>
      <path d="M104.47,95.24c3.25-3.73,7.83-5.6,13.75-5.6,5.4,0,9.51,1.36,12.33,4.07,2.82,2.71,4.23,7.66,4.23,14.85,0,7.83-1.62,13.6-4.87,17.34-3.25,3.73-7.83,5.6-13.75,5.6-5.4,0-9.51-1.35-12.33-4.05-2.82-2.7-4.23-7.66-4.23-14.87,0-7.82,1.62-13.6,4.87-17.34ZM109.59,123.47c1.8,2.45,4.46,3.68,8,3.68,3.28,0,5.74-1.24,7.4-3.72,1.66-2.48,2.49-6.52,2.49-12.12,0-6.71-.9-11.28-2.7-13.69-1.8-2.41-4.46-3.62-8-3.62-3.28,0-5.74,1.24-7.4,3.72-1.66,2.48-2.49,6.52-2.49,12.12,0,6.63.9,11.18,2.7,13.63Z"/>
      <path d="M154.26,127.06c6.04,0,10.86-.69,14.48-2.09.63,1.09.95,2.22.95,3.4,0,.87-.29,1.51-.86,1.92-.58.41-1.75.61-3.52.61l-23.77.03c-.26-.67-.39-1.31-.39-1.91,0-.4.1-.69.31-.88.21-.19.55-.28,1.03-.28h2.2c.14-2.78.21-9.87.21-21.27,0-6.1-.08-10.53-.24-13.29h-3.13c-.26-.67-.39-1.3-.39-1.88,0-.42.1-.72.31-.91.21-.19.55-.28,1.03-.28h12.9c.26.6.39,1.17.39,1.73,0,.5-.1.84-.3,1.04-.2.2-.56.3-1.07.3h-2.68c-.14,2.76-.21,7.31-.21,13.64,0,11.16.07,17.87.21,20.11h2.53Z"/>
      <path d="M188.02,102.17c.24.42.36.83.36,1.22,0,.35-.1.6-.3.74s-.55.21-1.04.21h-2.71c-.14,1.95-.21,5.17-.21,9.64,0,7.89.08,12.81.24,14.76h3.66c.24.42.36.83.36,1.22,0,.35-.1.6-.3.74s-.55.21-1.04.21h-13.41c-.26-.48-.39-.92-.39-1.33,0-.29.1-.51.31-.64.21-.13.55-.2,1.03-.2h2.71c.16-1.95.24-6.95.24-15.01-.02-4.31-.1-7.44-.24-9.39h-3.66c-.26-.48-.39-.92-.39-1.33,0-.29.1-.51.31-.64.21-.13.55-.2,1.03-.2h13.44Z"/>
      <path d="M207.71,90.24c8,0,13.53,1.44,16.59,4.3,3.06,2.87,4.59,7.59,4.59,14.17,0,7.37-1.55,12.91-4.65,16.62-3.1,3.71-8.21,5.57-15.34,5.57l-14.18.03c-.26-.67-.39-1.31-.39-1.91,0-.4.1-.69.31-.88.21-.19.55-.28,1.03-.28h2.2c.14-2.78.21-9.87.21-21.27,0-6.1-.07-10.53-.21-13.29h-3.16c-.26-.67-.39-1.3-.39-1.88,0-.42.1-.72.31-.91.21-.19.55-.28,1.03-.28h12.04ZM204.91,94.89c-.14,3-.21,10.37-.21,22.11,0,4.93.26,7.75.77,8.48.52.73,2.31,1.09,5.39,1.09,3.59,0,6.28-1.1,8.06-3.29,1.78-2.19,2.67-6.28,2.67-12.26s-1.04-10.41-3.11-12.81c-2.08-2.4-5.31-3.6-9.7-3.6-1.51,0-2.8.1-3.87.3Z"/>
      <path d="M253.91,90.05c.3.17,2.3,5.72,6.02,16.65,3.71,10.93,6.23,17.98,7.54,21.14h2.62c.24.6.36,1.17.36,1.73,0,.5-.1.84-.3,1.04s-.55.3-1.04.3h-12.36c-.26-.67-.39-1.3-.39-1.88,0-.42.1-.72.31-.91.21-.19.55-.28,1.03-.28h1.61c-.38-1.77-1.33-5.16-2.86-10.19h-13.44c-1.39,4.99-2.22,8.38-2.5,10.19h2.77c.24.6.36,1.17.36,1.73,0,.5-.1.84-.3,1.04s-.55.3-1.04.3h-10.96c-.24-.67-.36-1.3-.36-1.88,0-.42.1-.72.31-.91.21-.19.55-.28,1.03-.28h1.73c1.31-3.61,3.49-10.14,6.52-19.59s4.92-14.88,5.63-16.31,2.02-2.14,3.9-2.14c2.24,0,3.52.08,3.81.25ZM255.29,113.8c-3.62-11.5-5.56-17.25-5.82-17.25s-2.07,5.75-5.41,17.25h11.23Z"/>
      <path d="M306.2,93.31c-2.03,3.75-6.02,11.87-11.98,24.34,0,4.03.07,7.43.21,10.19h4.41c.26.6.39,1.17.39,1.73,0,.5-.1.84-.3,1.04s-.56.3-1.07.3h-14.75c-.24-.67-.36-1.3-.36-1.88,0-.42.1-.72.31-.91.21-.19.55-.28,1.03-.28h3.28c.16-2.76.24-5.97.24-9.62-6.53-13.11-10.8-21.41-12.81-24.91h-2.32c-.24-.67-.36-1.3-.36-1.88,0-.42.1-.72.31-.91.21-.19.55-.28,1.03-.28h12.01c.24.6.36,1.17.36,1.73,0,.5-.1.84-.3,1.04s-.55.3-1.04.3h-1.52c.87,2.62,2.49,6.63,4.84,12.04,2.35,5.4,3.64,8.1,3.86,8.1s1.37-2.63,3.44-7.88c2.07-5.25,3.5-9.34,4.28-12.26h-2.59c-.26-.67-.39-1.3-.39-1.88,0-.42.1-.72.31-.91.21-.19.55-.28,1.03-.28h10.81c.24.6.36,1.17.36,1.73,0,.5-.1.84-.3,1.04s-.55.3-1.04.3h-1.37Z"/>
      <g>
        <g id="Icons-2" data-name="Icons" class="cls-9">
          <polygon class="cls-2" points="174.63 80.67 174.63 87.74 180.91 91.29 187.19 87.74 187.19 80.67 180.91 77.16 174.63 80.67"/>
          <polyline class="cls-2" points="174.63 80.93 180.91 84.49 187.19 80.93"/>
          <line class="cls-2" x1="180.91" y1="91.29" x2="180.91" y2="84.49"/>
        </g>
        <g id="Layer_2-2" data-name="Layer_2">
          <polyline class="cls-3" points="180.91 84.23 187.19 80.67 180.91 77.16 180.91 80.67 174.63 80.67 180.91 84.23 180.91 91.29 187.19 87.74"/>
          <line class="cls-3" x1="174.42" y1="87.89" x2="174.42" y2="80.72"/>
          <line class="cls-3" x1="180.91" y1="87.89" x2="174.42" y2="84.49"/>
          <line class="cls-3" x1="184.05" y1="82.4" x2="184.05" y2="89.46"/>
          <circle class="cls-3" cx="180.91" cy="94.07" r=".89"/>
        </g>
      </g>
    </g>
    <g id="Layer_2-3" data-name="Layer_2" class="cls-9">
      <g id="dCwKSh">
        <g>
          <path d="M308.01,208.81c-.76-.14-1.9-.4-3.05-.55-.48-.07-.99.08-1.49.13-.14,0-.31.08-.43.02-1.99-.95-2.4-3.59-.83-5.28.35-.38.53-.61-.07-1-.26-.17-.41-.85-.28-1.18.57-1.47,1.32-2.83,2.87-3.53.97-.44,1.96-.83,2.93-1.27,2.43-1.1,4.86-2.2,7.29-3.31.1-.05.21-.14.31-.13,2.17.21,2.28-1.53,2.76-2.89,1.39-3.93,2.65-7.9,4.14-11.78,1.01-2.63,2.34-5.15,3.52-7.72.18-.41.31-.83.42-1.27.1-.43.1-.64-.43-.28-.83.57-1.5.09-1.98-.55-1.49-2.01-2.91-4.06-4.38-6.09-1.95-2.7-3.96-5.38-5.87-8.12-1.43-2.06-2.72-4.21-4.11-6.3-.95-1.44-1.87-2.91-2.97-4.23-2.09-2.5-3.56-5.37-5.05-8.22-.69-1.33-1.59-2.57-2.1-3.96-.46-1.24-1.49-2.27-.8-3.98.88-2.19,2.58-2.27,4.32-2.35,1.08-.05,2.18.41,3.29.56,1.53.22,3.07.44,4.62.54,1.41.1,2.2,1.16,1.47,2.35-1.18,1.93-.86,2.18-3.2,1.62-.85-.2-1.88.38-2.83.62,0,0,.03.41.13.55,1.59,2.4,2.37,5.31,4.61,7.31.08.07.17.17.2.27.89,3.43,3.86,5.73,4.94,9.04.45,1.37,1.06,2.56,2.4,3.28.22.12.49.42.49.63-.07,2.17,1.76,3.36,2.68,5,1.22,2.17,2.79,4.15,4.27,6.17.45.61,1.07,1.1,1.61,1.65.28-.65.58-1.3.84-1.95,1.63-4.02,3.25-8.04,4.88-12.06.58-1.45,1.2-2.87,1.73-4.34,1.69-4.59,3.35-9.21,5.01-13.81.13-.37.14-.77.28-1.13.21-.55.02-.87-.53-.96-.64-.12-1.32-.33-1.94-.23-1.01.17-1.62-.18-2.04-1.03-.27-.55-.57-1.09-.85-1.63-.44-.86-.21-1.64.67-1.91,1.08-.33,2.29-.63,3.37-.48,1.16.17,2.24.35,3.46.22,1.65-.17,3.36.08,5.03.23.79.07,1.38,1.34,1.18,2.42-.06.33-.17.67-.37.93-2.53,3.34-3.89,7.26-5.7,10.95-3.22,6.55-5.81,13.37-8.52,20.13-.79,1.96-1.77,3.85-2.52,5.83-1.28,3.38-2.38,6.82-3.67,10.2-1.18,3.07-2.52,6.07-3.78,9.1-.11.26-.26.5-.3.77-.94,5.74-4.17,10.49-6.81,15.5-.72,1.37-1.45,2.73-2.27,4.04-1.34,2.14-3.56,3.33-6.55,3.45h0ZM309.27,143.63c-.13-.22-.28-.45-.41-.69-.78-1.48-1.54-2.95-2.32-4.43-1.89-3.56-3.58-7.23-5.85-10.58-.09-.14-.4-.26-.52-.21-.15.06-.32.36-.28.5.26.9.49,1.81.88,2.65.54,1.16,1.32,2.21,1.81,3.38,1.1,2.63,2.79,4.93,4.33,7.3.54.82,1.26,1.53,1.91,2.28.06.07.21.13.29.1.07-.02.1-.17.17-.31v.02ZM337.45,144.87c-.12-.04-.23-.09-.35-.13-.11.17-.26.33-.33.51-1.1,2.78-2.19,5.57-3.3,8.37-1.19,3-2.4,5.99-3.57,8.99-.18.47-.25.97-.32,1.47-.02.14.1.3.16.45.17-.11.43-.17.49-.33.9-1.97,2.08-3.88,2.56-5.95.52-2.24,1.6-4.22,2.25-6.38.72-2.36,1.59-4.67,2.4-7h.01ZM343.66,128.7c-.07-.07-.25-.33-.34-.3-.23.07-.54.22-.63.42-.45,1.07-.88,2.15-1.25,3.24-.82,2.41-1.59,4.83-2.41,7.24-.39,1.15-.89,2.25-1.3,3.4-.07.2.07.48.11.71.15-.16.35-.29.43-.48,1.19-2.61,2.48-5.2,3.52-7.87.78-2.01,1.23-4.14,1.86-6.36h.01ZM317.7,156.8c-.94-4.36-4.05-7.27-6.56-10.56-.08-.11-.26-.14-.4-.2-.02.16-.11.35-.04.46.53.91,1.05,1.83,1.64,2.7,1.77,2.55,3.57,5.08,5.36,7.61h0ZM304.13,128.92c.51-.03,1.24.15,1.5-.12,1.1-1.12,2.26-1.3,3.63-.64.12.06.31-.03.47-.05-.14-.13-.26-.35-.42-.38-1.36-.28-2.73-.51-4.1-.78-.77-.15-1.52-.38-2.29-.46-.23-.02-.7.34-.71.53-.07,1.18.66,1.83,1.92,1.89ZM326.34,173.38c.33-.27.57-.37.63-.52.63-1.7,1.24-3.42,1.84-5.14.05-.14-.04-.32-.06-.48-.15.13-.36.24-.43.41-.71,1.61-1.41,3.23-2.08,4.85-.08.18.05.45.11.87h-.01ZM306.25,202.65c.07,0,.14-.02.21-.03,0-.33.02-.65-.02-.97,0-.06-.39-.16-.48-.08-.55.46-.56,2.57,0,3,.24.19.58.25.87.37-.08-.25-.18-.49-.24-.74-.13-.51-.23-1.03-.35-1.54h.01ZM302.69,204.96c.09.83.05,1.52.97,1.4.16-.02.42-.38.38-.51-.2-.7-.47-1.39-.72-2.08-.24.46-.48.91-.63,1.2ZM308.03,208.17c.47-.18.9-.34,1.34-.5-.42-.13-.84-.26-1.26-.38-.05,0-.11,0-.16.03-.4.09-.8.19-1.21.28.41.18.83.37,1.29.56h0ZM307.98,202.73c.25.35.5.7.76,1.07.16-.25.51-.55.45-.72-.17-.47-.5-.86-.77-1.29-.12.27-.25.53-.44.94h0ZM322.16,185.29c-.11-.28-.17-.42-.23-.56-.14.06-.37.09-.41.19-.25.59-.45,1.21-.67,1.81.15.05.42.17.44.14.32-.53.61-1.09.87-1.57h0ZM346.56,128.46c-.53-.33-.76-.57-.93-.53-.21.04-.5.32-.51.5-.01.25.2.51.32.77.31-.21.63-.42,1.12-.73ZM312.83,205.28c.42-.56.67-.88.89-1.22.03-.04-.11-.19-.17-.3-.3.21-.62.38-.87.63-.08.08.05.36.15.88ZM316.03,196.77c-.32.37-.54.52-.51.6.15.5.35.99.54,1.48.01.03.09.04.14.06-.06-.39-.13-.76-.17-1.15-.03-.24,0-.49,0-.99ZM312.53,196.22c-.08-.14-.16-.28-.17-.27-.38.18-.75.38-1.11.58,0,0,.1.2.16.31.37-.21.74-.41,1.12-.62h0Z"/>
          <path d="M108.03,114.06c0-2.59.17-5.21-.06-7.77-.15-1.69-.11-3.56-.98-5.07-.15-.25-.22-.63-.22-.95,0-1.17-.53-1.71-1.33-1.98-.21-.07-.47-.08-.6-.26-.25-.34-.61-.79-.59-1.17.02-.37.41-.83.72-1.02.38-.23.84-.32,1.27-.32,2.32-.02,4.65,0,6.97,0,.93,0,1.3.71,1.4,1.79.07.76-.08,1.32-.69,1.6-.87.42-1.92.6-1.95,2.26-2.07,1.38-1.37,3.94-1.49,6.11-.11,1.9-.12,3.83,0,5.72.19,2.9.02,5.77-.08,8.66-.19,5.33.09,10.69.15,16.03.02,2.29,0,4.58-.02,6.88-.02,3.36-.08,6.73-.06,10.09,0,2.3.12,4.61.17,6.91.02.62.04,1.44-.63,1.3-.29-.06-.66-.85-.69-1.33-.11-1.84-.09-3.69-.13-5.53,0-.15-.02-.3-.02-.45-.06.06-.14.11-.19.19-.73,1.14-1.08,2.39-.86,3.9.12.79.16,1.65.05,2.43-.18,1.29-.52,2.55-.76,3.83-.02.11.08.39.12.39,1.34.1,2.68.18,4.02.22.19,0,.38-.23.57-.35-.19-.16-.38-.36-.59-.45-.2-.08-.51.07-.63-.08-.29-.34-.49-.79-.73-1.2.35-.24.71-.71,1.03-.67.53.06,1.03.56,1.57.69.8.19,1.17.73,1.06,1.72-.12.99-.38,1.78-1.38,1.8-2.25.06-4.51.28-6.76.39-.42.02-.91-.02-1.27-.28-.46-.33-.81-.91-1.21-1.38.45-.48.85-1.05,1.34-1.42.44-.33.96-.47,1.47-.62.56-.17.6-.65.64-1.26.13-2.1.36-4.19.46-6.29.18-3.68.9-7.26.67-11.03-.25-4.18,0-8.41-.03-12.62,0-.74-.15-1.56-.44-2.19-.42-.94-1.01-1.77-1.57-2.6-.89-1.32-2.19-1.26-3.27-1.01-4.33,1.02-8.7.82-13.05.99-3.24.12-6.49.08-9.73,0-.93-.02-1.74-.16-2.48.87-.63.89-.9,1.73-.9,2.97.02,4.27-.03,8.54-.2,12.8-.2,5.03.19,9.98.91,14.91.14.92.36,1.87.73,2.64.24.49.83.7,1.28,1.01.49.34,1.07.54,1.44,1.03.28.36.44,1.12.36,1.62-.05.33-.61.61-.97.75-2.07.79-4.21.25-6.29.49-1.1.13-1.85-.8-2.79-1.06-.1-.03-.23-.81-.12-1.1.5-1.28,1.07-2.52,1.65-3.74.11-.22.49-.43.66-.34.94.51.76-.35.75-.98-.03-1.09.2-2.22-.51-3.18-.22-.3-.19-.95-.22-1.45-.17-4.31-.46-8.61-.42-12.92.02-1.61-.47-3.52.63-4.99.12-.15.03-.55.04-.83.15-4.52.33-9.04.41-13.56.05-2.62-.06-5.25-.14-7.88-.08-2.71-.25-5.42-.32-8.13-.02-.98.19-1.96.25-2.94.05-.89.08-1.8,0-2.69-.13-1.68-.26-1.68-1.61-1.73-.55-.02-1.15-.44-1.62-.87-.45-.41-.8-1.03-1.11-1.64-.16-.32-.31-.93-.19-1.15.18-.31.61-.54.93-.52,1.51.1,3.01.33,4.52.43.46.03.96-.12,1.38-.36.86-.46,1.71-.68,2.65-.58.73.08,1.42.11,1.63,1.24.17.93-.38,2.18-1.13,2.59-.24.13-.52.13-.76.27-.76.46-1.22,1.11-1.55,2.26-.75,2.59-.3,5.23-.56,7.82-.04.4.06,1.04.29,1.24,1.24,1.13.77,2.74.76,4.19-.02,1.79-.23,3.59-.19,5.38.02,1.1.35,2.19.6,3.26.06.27.36.58.57.62,1.88.41,3.69,1.15,5.69.62,1.57-.42,3.26-.14,4.89-.2,1.95-.07,3.91-.19,5.85-.25,1.11-.03,2.23-.02,3.35.02,2.51.1,5.02.26,7.53.33,1.57.04,2.63-1.41,2.63-3.47v-7.44.03ZM81.98,127.05c.53.1,1.07.28,1.59.27,3.95-.06,7.91-.16,11.87-.24,1.43-.03,2.86-.06,4.29-.1.25,0,.52-.03.77-.1.11-.03.2-.2.3-.31-.12-.1-.22-.26-.35-.28-1.47-.2-2.93-.39-4.39-.57-.53-.06-1.08-.19-1.6-.11-1.18.17-2.35.66-3.53.64-2.99-.06-5.97-.26-8.94.8h-.02ZM109.03,153.74c.12.03.24.05.36.08-.08-6.86.07-13.72-.29-20.57h-.34c.09,6.83.18,13.65.27,20.48h0ZM74.83,117.01v1.16c-.06,3.58-.13,7.16-.19,10.75,0,.42.09.85.15,1.28.13-.41.29-.81.39-1.23.06-.26.06-.55.08-.83.09-1.94.29-3.88.23-5.81-.05-1.76.59-3.7-.66-5.32h0ZM76.12,163.7h0c.03.5-.02,1.04.11,1.5.1.35.38.76.65.86.53.21,1.1.25,1.66.29.18.01.37-.2.55-.31-.15-.12-.3-.32-.47-.36-.86-.22-1.49-.76-1.81-1.85-.08-.26-.15-.53-.26-.76-.08-.16-.25-.24-.38-.36-.02.16-.05.32-.06.49,0,.17.02.34.02.5ZM74.75,163.12s-.08-.02-.13-.03c0,.33.05.68-.02,1-.07.36-.23.69-.36,1.03-.22-.23-.59-.42-.65-.71-.26-1.23-.44-.68-.66,0-.1.31-.29.58-.35.9-.03.17.11.59.18.59.73.01,1.46-.04,2.18-.07-.07-.9-.14-1.8-.2-2.7h0ZM74.59,152.89c0-1.08,0-1.81,0-2.54,0-.11-.14-.23-.23-.3-.03-.02-.18.1-.19.17-.11,1.83-.21,3.66-.29,5.49,0,.11.16.23.25.35.06-.12.16-.23.18-.36.12-1.05.22-2.11.29-2.82h0ZM74.47,134.78c0,.97-.03,1.64,0,2.3.02.42.15.83.23,1.24.09-.4.22-.79.25-1.2.05-.55.05-1.11.06-1.66.02-1,.06-2,.05-3,0-.2-.22-.4-.33-.6-.05.18-.15.37-.16.56-.05.88-.09,1.77-.12,2.36h0ZM109.08,119.59c.13,0,.26-.02.39-.04,0-2.4,0-4.81,0-7.21,0-.17-.15-.34-.22-.51-.05.13-.15.25-.15.38,0,2.46,0,4.92,0,7.38h0ZM74.56,145.59h.05c-.02.56-.05,1.12-.05,1.68,0,.13.09.25.15.38.06-.13.17-.25.18-.39.09-1.56.17-3.11.25-4.67,0-.13-.09-.27-.14-.41-.1.13-.28.25-.29.4-.06,1-.09,2.01-.13,3.01h0ZM109.06,97.01c-.19.18-.36.34-.52.5.22.24.44.68.66.68.19,0,.38-.49.56-.77-.21-.13-.42-.25-.69-.41h0ZM109.5,100.46c-.09.54-.16.87-.2,1.21,0,.05.15.13.22.19.1-.29.22-.58.29-.89.02-.07-.12-.21-.32-.52h0ZM79.41,126.42c-.14.12-.26.23-.39.34.11.05.22.15.32.14.14,0,.28-.11.42-.18-.1-.09-.2-.17-.35-.3ZM76.36,126.49c.23.13.42.27.62.32.04,0,.21-.34.19-.49-.04-.22-.2-.41-.31-.61-.09.15-.19.3-.49.77h0ZM74.71,109.3s.06-.04.09-.06c.02-.38.03-.76.03-1.13,0-.02-.11-.05-.16-.07.02.42.02.84.04,1.26h0ZM74.86,115.81c.09-.23.16-.34.18-.47,0-.09-.05-.19-.08-.29-.08.08-.23.14-.25.24-.02.12.07.26.15.52h0Z"/>
          <path d="M231.9,161.29c-.37.44-.67.76-.92,1.11-1.12,1.59-2.64,2.72-4.34,3.55-1.85.91-3.8,1.65-5.75,2.33-.62.22-1.39-.06-2.07.04-2.83.39-5.62.03-8.36-.59-1.93-.44-3.67-1.38-5.04-2.9-3.14-3.49-5.6-7.38-6.31-12.08-.35-2.35-.32-4.82-.05-7.19.27-2.31.67-4.78,1.75-6.79,1.67-3.11,2.23-6.88,5.19-9.26.78-.63,1.6-1.21,2.43-1.77,2.67-1.8,5.57-2.98,8.84-2.72,1.13.09,2.22.7,3.31,1.13.1.04.13.63,0,.77-.7.75-1.59.86-2.61.79-2.27-.16-4.45.19-6.41,1.47-.23.15-.53.27-.68.48-1.7,2.48-3.95,4.6-4.74,7.68-.77,2.99-1.77,5.92-1.89,9.03-.06,1.46-.08,2.94.12,4.38.3,2.22.52,4.51,1.31,6.57.76,1.99,1.96,3.84,3.7,5.29,1.5,1.25,3.15,1.91,5.04,2.1.55.06,1.12.11,1.64.28.24.08.61.55.55.66-.69,1.31.23,1.1.97,1.08.45,0,.99-.14,1.33.06.7.41,1,.04,1.56-.3.72-.44,1.69-.49,2.54-.73.5-.14,1.37-.15.32-.9-.26-.19-.35-.63-.52-.96.33-.09.68-.14.99-.28.92-.41,2.02-.65,2.69-1.32,3.31-3.34,5.45-7.28,5.5-12.11.03-2.92-.07-5.84-.06-8.76,0-.37.26-.74.4-1.11.34.39.98.77.98,1.16.02,3.87-.1,7.74-.1,11.61,0,.9.31,1.8.49,2.7.01.07.12.12.18.18.04-.16.1-.31.12-.48.15-1.39.34-2.78.44-4.18.19-2.78.36-5.57.49-8.36.18-4.03.33-8.07.47-12.11.08-2.35.11-4.7.13-7.05,0-.26-.19-.53-.29-.79-.09.25-.27.51-.27.76.06,4.03-1.18,8-.45,12.06.15.81.3,1.67.16,2.45-.1.54-.61,1.19-1.1,1.43-.72.34-1.03-.32-1.27-.95-.63-1.66-1.18-3.37-1.99-4.95-1.54-3-4.18-4.6-7.42-5.31-.38-.08-.7-.44-1.05-.68.31-.27.58-.65.93-.77.38-.13.92-.16,1.26.02,2.08,1.11,4.15,2.23,6.15,3.47.63.39,1.01,1.19,1.53,1.77.17.19.43.29.65.44.11-.24.3-.47.32-.72.23-2.34.51-4.69.64-7.04.15-2.8.24-5.61.21-8.41-.03-3.41-.23-6.83-.32-10.24-.03-1.06.11-2.13.05-3.2-.02-.37-.4-.73-.62-1.09-.21.29-.54.55-.6.86-.23,1.17-.88,1.42-1.96,1.16-.87-.21-1.77-.25-2.65-.4-.77-.13-1.62-.16-1.68-1.27-.06-1.08.37-1.84,1.33-2.31,1.15-.56,2.32-1.1,3.43-1.73.44-.25.85-.66,1.1-1.1.68-1.17,1.73-1.81,2.99-1.96.6-.07,1.35.22,1.85.59.84.62,1.56,1.41,2.29,2.16.22.22.43.57.43.86.04,1.82-.02,3.64.02,5.46.05,2.07.29,4.14.21,6.2-.08,2.01-.47,4.01-.69,6.02-.06.59.04,1.2,0,1.8-.08,1.04-.28,2.06-.33,3.1-.08,1.5-.19,3.02-.07,4.52.3,3.66.33,7.31-.28,10.92-.52,3.03-.44,6.04-.4,9.07.01,1-.27,2.01-.25,3.01.05,3.02.17,6.05.3,9.07.05,1.15.21,2.29.28,3.44.09,1.47.52,1.97,2.59,2.25,1.09.15,1.68.6,2.16,1.55.81,1.6.11,3-1.67,3.01-1.75,0-3.5,0-5.25-.07-.94-.05-1.89-.2-2.79-.47-1.07-.33-1.36-1.26-1.32-2.3.05-1.34.12-2.68.2-4.21v.02ZM235.74,105.59h-.04c0-.39.05-.79-.02-1.17-.05-.29-.25-.56-.38-.83-.07.25-.21.49-.21.74-.02,1.17-.03,2.33-.01,3.5.03,1.96.07,3.93.15,5.89.01.28.24.55.37.83.05-.26.13-.51.13-.77v-8.19ZM211.25,166.14c-1.56-1.24-2.84-2.28-4.14-3.28-.62-.48-1.3-.88-1.95-1.32.43.69.78,1.44,1.29,2.06,1.17,1.41,2.67,2.24,4.8,2.54h0ZM201.69,144.59c.05.42.04.82.15,1.19.08.27.32.48.49.72.19-.28.51-.53.56-.83.18-1.15.29-2.31.4-3.47.06-.66.09-1.32.13-1.98-.38.67-.85,1.3-1.13,2.01-.3.77-.42,1.6-.61,2.37h.01ZM229.57,102.76c.25-.33.56-.66.79-1.03.16-.26.17-.63.34-.87.25-.35.59-.63.9-.93-.47.08-.96.11-1.41.26-.47.15-.93.39-1.36.63-.57.32-1.11.68-1.66,1.02.71.27,1.41.55,2.4.93h0ZM239.26,166.7c.53-.2.77-.3,1.01-.39-.16-.26-.25-.63-.48-.78-.93-.58-1.91-1.09-2.86-1.64-.26-.15-.5-.33-.75-.49-.15.29-.44.6-.41.86.03.23.39.48.66.62.46.25,1,.37,1.43.65.53.34.98.8,1.4,1.16h0ZM234.02,163.45c-.1.18-.23.3-.23.42,0,.5-.09,1.06.09,1.5.16.38.62.69,1.01.91.18.1.51-.07.78-.11-.19-.32-.38-.64-.56-.97-.21-.39-.39-.8-.61-1.18-.11-.19-.28-.33-.49-.56h0ZM202.34,150.61c.24,1.3.47,2.56.73,3.81.03.15.29.26.44.39.03-.15.11-.31.08-.46-.21-1.26-.42-2.53-.67-3.79-.04-.21-.28-.38-.42-.56-.05.21-.11.42-.16.61ZM206.02,132.88c.2-.03.29-.02.31-.05.64-.84,1.27-1.68,1.89-2.53.03-.04-.07-.23-.14-.25-.08-.03-.24,0-.3.07-.59.67-1.19,1.33-1.74,2.04-.12.15-.02.46-.02.72h0ZM237.56,101.93c-.01-.16.03-.47-.08-.7-.12-.26-.38-.47-.58-.7-.09.28-.26.55-.25.83,0,.43.11.87.21,1.3.05.19.2.34.3.52.12-.21.26-.41.35-.64.06-.15.03-.33.05-.61ZM235.39,100.85c-.25-.34-.49-.66-.72-.98-.35.31-.71.61-1.06.92.45.27.9.54,1.35.81.12-.21.24-.42.43-.75ZM235.89,162.31c.1-.02.2-.05.3-.07-.07-.69-.13-1.38-.23-2.07-.02-.12-.22-.22-.34-.33-.06.14-.18.3-.16.43.12.68.28,1.36.42,2.04h.01ZM235.19,120.98c.02.33.04.56.06.78.09-.3.19-.6.26-.91.02-.11-.04-.23-.07-.35-.1.19-.2.37-.25.48h0ZM237.43,108.51c.2-.59.31-.81.33-1.03.02-.2-.08-.41-.12-.61-.17.25-.38.48-.48.75-.05.13.09.34.27.89h0ZM203.79,159.18c-.16.08-.24.12-.32.16.16.22.32.44.5.64,0,0,.19-.12.29-.18-.16-.21-.31-.42-.46-.62h0Z"/>
          <path d="M247.82,152.78c-.15-2.46-.3-4.94-.44-7.4-.05-.87.14-1.77,1.05-2.01.8-.21.88-.71,1.07-1.28,1.62-4.75,3.81-9.16,7.2-13.05,1-1.15,2.3-1.57,3.34-2.48.16-.14.63-.19.76-.08.99.86,1.89.23,2.82-.1,1.6-.57,3.2-.99,4.91-.41.26.09.73.03.92-.14.6-.54,1.22-.65,2.02-.47,1.58.34,3.2.5,4.76.9,2.27.57,4.07,1.8,5.23,3.84.12.21.37.37.57.54.04-.25.11-.5.11-.75.02-1.18-.13-2.38.08-3.53.1-.57.76-1.14,1.3-1.51.68-.46,1.34-.24,1.91.41,1.12,1.28,2.2,2.63,3.47,3.75,1.23,1.08,2.65,1.97,4.06,2.84.94.59,1.53,2.14.86,3.02-.24.31-.86.51-1.28.47-1.16-.1-2.33-.29-3.47-.54-1.39-.32-1.76-.12-1.91,1.25-.2,1.93-.41,3.87-.6,5.81-.27,2.86-.55,5.72-.76,8.58-.06.79.13,1.6.16,2.4.1,3.26.24,6.51.23,9.77,0,1.17.48,1.66,1.56,1.91,1.23.28,2.58,2.11,2.4,3.31-.11.7-.45,1.31-1.43,1.27-1.1-.05-2.21-.02-3.31.02-1.6.05-3.19.18-4.79.19-1.17,0-1.71-.76-1.36-2.08.47-1.75.83-3.49.48-5.29-.04-.22-.11-.44-.17-.66-.15.15-.34.28-.45.45-.75,1.14-1.38,2.38-2.24,3.43-1.9,2.34-4.69,3.2-7.52,3.9-1.89.47-3.81.91-5.74,1.17-1.02.14-2.12-.02-3.13-.25-4.53-1.01-7.66-3.81-10.19-7.46-2.06-2.99-2.61-6.29-2.47-9.75h-.01ZM267.72,128.79s-.02-.06-.03-.09c-1.2.24-2.39.54-3.59.71-2.86.4-4.48,2.14-5.4,4.6-.67,1.79-1.12,3.64-1.82,5.41-1.37,3.49-1.76,7.13-2.09,10.79-.3,3.26.16,6.46.52,9.69.09.76.17,1.32,1.16,1.46.66.09,1.49.66.8,1.34-.75.75-.3,1.06.13,1.58.94,1.16,2.94,1.01,3.47,2.67.04.12.4.15.62.17,2.28.22,4.55.47,6.84.6.55.03,1.19-.32,1.68-.64,1.66-1.1,3.33-2.22,4.9-3.44.86-.67,1.64-1.5,2.29-2.37.58-.78.89-1.73,2.01-2.06.3-.09.59-.66.62-1.03.28-3.22.56-6.43.71-9.66.16-3.46.18-6.93.25-10.39.04-1.88.23-3.77-1.05-5.45-.41-.54-.44-1.33-.75-1.96-.19-.38-.53-.86-.89-.96-1.82-.47-3.66-1-5.53-1.2-1.6-.16-3.24.12-4.86.2v.02ZM252.21,155.06c.17.9.31,1.8.53,2.69.07.26.39.46.59.7.04-.26.11-.53.1-.79-.04-2.44-.19-4.89-.13-7.32.11-4.17.73-8.27,2.4-12.17.21-.5.18-1.09.26-1.64-.27.46-.63.9-.78,1.39-1.71,5.59-3.12,11.25-2.97,17.17h0ZM285.71,135.8c-.06,0-.12-.02-.17-.02,0-.11.03-.22,0-.33-.1-.31-.23-.6-.34-.91-.2.28-.41.56-.6.86-.05.08,0,.21,0,.32.13,3.49-.43,6.91-1.07,10.33-.11.57-.05,1.18,0,1.76.02.19.28.37.43.55.07-.18.19-.36.2-.54.04-.65-.02-1.3.07-1.94.47-3.36.98-6.71,1.47-10.08h.01ZM250.13,147.82s.16.27.3.5c.22-.15.65-.35.63-.44-.35-1.45.42-2.42,1.36-3.38.16-.16.15-.51.19-.77.12-.8.23-1.59.34-2.4.02-.15,0-.32,0-.47-.16.1-.34.16-.46.29-.98,1-.5,2.73-1.88,3.55-.03.02,0,.11-.01.15-.14.91-.27,1.81-.45,2.98h-.02ZM282.56,142.81c.13,0,.27,0,.4.02.09-1.93.19-3.86.26-5.8,0-.16-.17-.33-.26-.49-.16.13-.45.24-.47.4-.28,1.96-.72,3.94.07,5.88h0ZM254.57,135.9c.33-.17.61-.23.67-.37.53-1.18,1.03-2.38,1.52-3.56.03-.08-.05-.19-.08-.29-.09.04-.23.05-.27.11-.76,1.12-1.52,2.24-2.22,3.39-.07.12.22.43.39.73h-.01ZM261.96,168.39c-1.35-.54-2.71-1.09-4.06-1.63-.18-.08-.37-.14-.55-.2.12.19.2.42.35.57,1.16,1.22,2.78,1.01,4.26,1.27h0ZM288.22,166.78c-.46-.39-.77-.64-1.08-.9-.17.21-.52.49-.47.63.12.32.4.62.69.82.08.06.44-.27.86-.54h0ZM283.25,166.19c.17-.06.39-.14.61-.21-.45-.46-.9-.93-1.35-1.39-.14.22-.32.43-.4.68-.4,1.15.67.63,1.15.93h0ZM285.06,131.32c-.15.09-.29.18-.44.27-.05.22-.23.57-.14.66.36.33.79.59,1.22.83.05.03.39-.29.37-.32-.32-.49-.67-.97-1.01-1.44h0ZM270.21,127.31c.72-.09,1.26-.15,1.8-.22-.55-.09-1.09-.23-1.64-.26-.52-.03-1.05.07-1.58.11.52.14,1.05.28,1.42.38ZM253.99,163.7c-.18.34-.32.49-.28.55.22.36.48.69.73,1.01,0,0,.27-.14.27-.15-.19-.41-.41-.81-.72-1.4h0Z"/>
          <path d="M170.17,103.44c-.22,2.68-.54,5.35-.64,8.04-.09,2.73.07,5.47.05,8.2,0,1.62-.09,3.24-.24,4.85-.04.42-.39.94-.75,1.15-.18.1-.74-.35-1.06-.62-.2-.17-.28-.48-.45-.7-.09-.11-.28-.22-.4-.2-.09.02-.21.23-.22.37-.11,1.57-.23,3.13-.3,4.7-.02.41-.11.96.66.86.58-.07.96-.25.9-.93-.05-.5-.14-1.03-.05-1.51.06-.3.41-.76.63-.76.29,0,.77.33.84.61.16.64.09,1.33.17,1.99.43,3.65-.27,7.25-.48,10.87-.13,2.36,0,4.73.06,7.09.05,2.35.12,4.7.2,7.05.03.78.13,1.55.18,2.33.05.78.04,1.56.12,2.34.12,1.16.17,2.36.51,3.46.26.86.7,1.77,2.08,1.13.94-.43,2.22.76,2.46,2.01.2,1.08-.53,2.06-1.82,2.13-1.61.08-3.24-.08-4.86-.07-1.79,0-3.58.1-5.37.13-1.67.03-3.1-1.71-2.19-2.98.51-.71.71-2.66,2.59-1.96.13.05.83-.85.9-1.35.21-1.54.24-3.1.33-4.66.23-4.09.49-8.17.66-12.26.09-1.97.05-3.94.02-5.91-.06-3.85-.19-7.71-.22-11.56-.03-3.7.07-7.41,0-11.11-.03-2.02-.21-4.05-.42-6.06-.08-.81-.4-1.6-.68-2.38-.03-.1-.48-.14-.69-.07-.58.2-1.13.5-1.71.7-1.13.39-2.14.09-2.53-.69-.38-.76-.04-1.91.83-2.52,2.24-1.56,3.77-3.62,4.62-6.21.08-.24.29-.62.45-.63,1.49-.07,3.03-.26,4.46.02.48.1.87,1.43,1.02,2.24.18.92.04,1.91.04,2.86.1,0,.19.01.29.02h0ZM166.81,154.9c0,.61-.09,1.09.03,1.5.09.29.47.5.72.74.24-.26.67-.51.68-.78.11-1.84.2-3.68.16-5.52-.05-2.49-.22-4.97-.36-7.46,0-.19-.17-.38-.27-.57-.11.2-.31.4-.32.61-.23,3.88-.44,7.77-.65,11.49h.01ZM168.57,100.94c-.27-.55-.51-1.05-.76-1.54-.21.36-.65.77-.59,1.06.09.41.57.73.88,1.09.14-.18.28-.36.46-.61h0ZM168.6,161.12c-.12.76-.26,1.41-.3,2.07,0,.2.18.48.37.61.14.1.57.07.6,0,.08-.22.08-.51,0-.74-.19-.62-.42-1.23-.67-1.93h0ZM168.77,131.79c-.08,0-.17.03-.25.04-.07.26-.18.52-.2.78-.04.61-.04,1.21-.04,1.82,0,.03.16.07.24.1.11-.59.24-1.17.31-1.76.04-.32-.03-.66-.05-.98h-.01ZM166.89,105.41c-.15-.33-.27-.6-.39-.87-.19.22-.53.44-.53.65,0,.27.31.52.49.78.13-.18.27-.35.43-.56ZM170.42,165.4c-.13.22-.21.34-.28.46.28.16.54.34.84.46.07.03.23-.12.34-.19-.28-.23-.56-.45-.9-.73h0Z"/>
          <path d="M150.46,156.6c.34-.78.65-1.57,1.03-2.33.11-.21.39-.35.59-.52.2.23.51.44.56.7.07.35,0,.76-.13,1.09-1.33,3.03-2.39,6.23-5.06,8.48-2.28,1.93-4.85,3.4-7.91,4.02-2.67.54-5.26.32-7.74-.6-4.03-1.47-7.5-3.55-9.86-7.34-1.69-2.72-2.17-5.5-2.32-8.47-.07-1.38.07-2.78-.03-4.15-.24-3.15.72-6.13,1.63-9.05,1.18-3.81,3.16-7.24,6.61-9.72,1.73-1.25,3.02-3.12,5.28-3.58,1.06-.22,2.19-.16,3.28-.13.3,0,.59.37.89.56-.35.19-.72.58-1.04.54-1.72-.2-3.04.59-4.33,1.48-.26.18-.98.41-.03.82.72.31.15.83-.14,1.17-.81.96-1.84,1.8-2.46,2.85-.85,1.48-1.6,3.08-2.04,4.72-.64,2.34-1.2,4.74-1.37,7.14-.25,3.59-.3,7.23-.09,10.82.11,1.79.84,3.58,1.55,5.28.85,2,2.18,3.62,4.76,3.74.5.02,1.16.36,1.42.74,1.19,1.79,2.98,1.96,4.83,1.64,5.89-1.02,8.58-3.42,9.73-8.39.8-3.47,1.45-6.98,2.11-10.47.14-.74.15-1.53.05-2.27-.49-3.62-.5-7.36-2.4-10.68-.48-.84-1.1-1.64-1.79-2.34-1.39-1.39-2.88-2.69-4.3-4.06-.18-.17-.33-.66-.23-.78.92-.96-.16-.84-.59-1.05-.09-.05-.22-.05-.33-.05-.65-.02-1.55.18-1.48-.76.02-.25,1.18-.7,1.7-.59,1.67.38,3.32.89,4.91,1.53,2.72,1.08,4.59,2.92,5.48,5.72.44,1.37,1.42,2.6,1.85,3.98.65,2.1,1.2,4.27,1.47,6.45.35,2.89-.09,5.79-.5,8.68,0,.06,0,.12-.05.15-.32.3-.68.85-.96.81-.51-.07-.91-.37-.65-1.15.99-3.07.48-6.23.32-9.34-.07-1.43-.3-2.94-.86-4.26-1.22-2.87-2.16-5.96-4.56-8.19-.97-.9-2.39-1.35-3.61-2-.12-.07-.31,0-.46,0,.09.15.14.36.27.46,1.24,1.07,2.59,2.03,3.74,3.18,2.19,2.21,3.56,4.79,3.78,7.93.17,2.47.93,4.93.82,7.37-.13,2.93-.9,5.84-1.4,8.76-.08.45-.18.89-.27,1.35.11.04.22.07.33.11h0ZM123.13,149.95s-.03,0-.05,0c.12,1.45.21,2.89.35,4.34.24,2.43,1.13,4.71,2.01,6.98.08.22.34.37.51.56.04-.27.18-.57.11-.81-.4-1.29-.89-2.55-1.28-3.83-1.08-3.48-.81-7.01-.45-10.56.54-5.3.65-10.69,3.73-15.43.08-.12-.03-.37-.05-.56-.15.06-.36.07-.44.17-1.08,1.43-2.41,2.76-3.17,4.33-1.62,3.33-2.58,6.9-2.95,10.57-.21,2.09-.22,4.19-.28,6.28,0,.18.26.38.4.58.08-.18.23-.37.23-.56-.03-1.03-.18-2.06-.11-3.07.06-.83.36-1.64.6-2.45.05-.16.28-.28.43-.42.14.21.4.42.4.63.04,1.08.02,2.16.02,3.25h0Z"/>
          <path d="M186.28,167.45c-1.13,0-2.25-.03-3.38,0-1.46.04-2.09-.26-2.22-1.15-.13-.86.48-1.89,1.58-2,1.57-.14,2.06-1.07,2.48-2.26.21-.6.36-1.02-.21-1.58-.36-.36-.47-1.08-.44-1.63.19-4.09.47-8.17.66-12.26.17-3.61.24-7.22.38-10.82.05-1.14-.56-2.23-.03-3.47.22-.53-.85-.41-1.23-.08-.72.63-1.56,1.02-2.46.75-.74-.22-1.48-.69-2.01-1.24-.22-.23-.11-1.16.18-1.39,2.09-1.67,4.26-3.26,6.43-4.84.92-.66,1.87-.66,2.74.18.18.18.45.34.7.39.94.21,1.3.83,1.26,1.67-.15,2.69-.31,5.37-.51,8.04-.13,1.71-.39,3.42-.49,5.13-.28,4.99-.7,9.97-.47,14.98.1,2.12-.19,4.26-.35,6.4-.07.91.86,1.82,2.01,1.69.8-.1,1.49-.21,1.67.75.21,1.08-.6,2.42-1.58,2.49-1.57.1-3.15.03-4.72.03v.21h.01ZM189.27,130.76c-.09-.02-.18-.04-.26-.06-.04-.75-.06-1.51-.13-2.26-.02-.16-.21-.32-.32-.48-.12.11-.31.2-.34.34-.3,1.57-.73,3.14-.82,4.72-.09,1.48.19,2.98.31,4.46.02.25.08.5.12.76.17-.25.48-.49.5-.75.06-.85-.1-1.73.03-2.56.22-1.4.6-2.77.91-4.17h0ZM188.25,140.28c0,.06,0-.27-.06-.59-.04-.19-.19-.36-.28-.54-.13.18-.34.36-.36.56-.19,1.6-.44,3.2-.49,4.81-.05,1.49.09,2.99.18,4.48,0,.15.24.31.36.45.04-.15.1-.3.11-.45.18-2.78.35-5.56.55-8.72h0ZM188.59,165.53c.02.08.04.16.06.24.27-.14.54-.29.81-.42-.19-.16-.38-.34-.58-.48-.31-.23-.68-.4-.94-.66-.65-.65-1.2-.67-1.75.12-.18.26-.5.43-.72.67-.13.14-.19.35-.28.52.2.07.4.2.6.19.93-.03,1.87-.11,2.8-.16h0Z"/>
          <path d="M179.5,108.53c.25-2.04.52-4.07.74-6.12.06-.55-.02-1.12-.04-1.68-.03-.87.21-1.15,1.2-.93,1.11.26,2.31.21,3.47.21.19,0,.49-.41.53-.66.09-.54.03-1.11.05-1.67.05-1.3,1.15-1.92,2.22-1.19,1.75,1.2,3.49,2.43,5.15,3.74.5.39.83,1.06,1.11,1.67.31.67.03,1.21-.68,1.47-.37.13-.76.21-1.13.35-.77.3-1.48.46-1.12,1.73.25.89-.24,1.98-.29,2.98-.03.53.16,1.07.25,1.61.51-.17,1.01-.35,1.53-.5.39-.12.82-.34,1.16-.25.31.09.75.6.7.83-.1.43-.43.97-.82,1.14-1.42.66-2.89,1.19-4.35,1.76-.83.32-1.65.66-2.5.9-.42.12-1.03.22-1.33,0-.32-.23-.63-.94-.5-1.25.82-2.02-.13-3.21-1.75-4.17-.14-.08-.25-.22-.39-.32-1.05-.79-1.06-.79-1.31.46-.15.75,0,1.67-1.07,1.84-.49.08-.56-.18-.84-1.95h0ZM185.14,101.94h0c-.44,0-.88-.06-1.32-.05-.12,0-.34.25-.32.33.26.85,3.29,2.16,4.14,1.76,1.01-.47,1.99-.98,2.98-1.5.32-.17.61-.39.91-.59-.23-.35-.39-.79-.71-1.04-.92-.73-1.89-1.4-2.86-2.06-.21-.14-.5-.15-.76-.22,0,.26-.06.53-.03.79.04.27.15.54.24.8.51,1.42.23,1.82-1.26,1.84-.33,0-.67-.05-1-.07h0ZM189.03,106.41l.25-.15c-.22-.3-.44-.61-.65-.91-.61.62-1.58,1.16-1.75,1.89-.28,1.22-.08,2.56,0,3.84,0,.23.45.67.54.64.71-.29,1.57-.51,1.6-1.49.04-1.27,0-2.55,0-3.82h0ZM181.17,104.25c.06.4,0,.72.14.82,1.15.87,2.32,1.7,3.51,2.51.07.05.54-.23.54-.36,0-.74.16-1.54-.75-2.02-.72-.38-1.34-.96-2.03-1.4-.3-.2-.75-.47-1-.37-.24.09-.32.62-.41.83h0Z"/>
        </g>
      </g>
    </g>
  </g>
</svg>