<?xml version="1.0" encoding="UTF-8"?>
<svg id="Layer_1" xmlns="http://www.w3.org/2000/svg" viewBox="0 0 202.44 221.04">
  <defs>
    <style>
      .cls-1 {
        fill: #f0f8ff;
      }
    </style>
  </defs>
  <path class="cls-1" d="M142.21,52.86h-36.54v-5.39h36.54c11.05,0,20-8.95,20-20s-8.95-20-20-20h-36.54c-22.09,0-40,17.91-40,40v67.54c-3.8-.89-7.75-1.37-11.81-1.37-21.07,0-39.18,12.58-47.28,30.63,12,6.33,37.82,17.59,65.37,14.73,3.3-.35,6.54,1.11,8.48,3.81,1.94,2.7,2.29,6.23.91,9.25-.61,1.33-6.32,13.21-20.45,22.09-10.9,6.85-22.68,9.34-34.07,9.34-2.9,0-5.78-.17-8.61-.46,9.29,8.82,21.84,14.25,35.66,14.25,28.62,0,51.81-23.2,51.81-51.81,0,0,0,0,0,0v-72.59h36.54c11.05,0,20-8.95,20-20s-8.95-20-20-20ZM48.36,135.89c-1.26,3.07-4.76,4.53-7.83,3.27-5.1-2.09-10.07.18-10.12.2-.86.43-1.77.63-2.67.63-2.21,0-4.33-1.22-5.38-3.33-1.48-2.97-.27-6.57,2.7-8.05.99-.49,9.95-4.69,20.02-.56,3.07,1.26,4.53,4.76,3.28,7.83ZM79.5,149.51c-1.13.96-2.51,1.43-3.88,1.43-1.7,0-3.39-.72-4.57-2.11-3.21-3.77-8.99-3.88-9.05-3.88h-.04c-3.3,0-5.95-2.66-5.97-5.96-.02-3.31,2.67-6.02,5.99-6.04,1.16.02,11.46.16,18.22,8.1,2.15,2.52,1.84,6.31-.68,8.46Z"/>
</svg>