<?xml version="1.0" encoding="UTF-8"?>
<svg id="Layer_1" xmlns="http://www.w3.org/2000/svg" viewBox="0 0 202.44 221.04">
  <defs>
    <style>
      .cls-1 {
        fill: #f0f8ff;
      }
    </style>
  </defs>
  <path class="cls-1" d="M190.32,50.11l-19.29-13.43c-17.23-12-40.8-8.64-53.98,7.7l-4.55,5.64c-14.15,17.53-25.07,36.03-32.45,54.98-1.59,4.08-3.01,8.19-4.27,12.32-5.92-2.36-12.38-3.67-19.14-3.67-28.62,0-51.81,23.2-51.81,51.81,0,4.46.56,8.79,1.63,12.92,13.87,4.89,39.48,9.89,64.24-6.62,2.99-1.99,7.02-1.18,9.01,1.8,1.99,2.99,1.18,7.02-1.8,9.01-15.34,10.23-30.89,13.53-44.57,13.53-7.32,0-14.1-.95-20.04-2.29,9.26,14.12,25.21,23.45,43.35,23.45,28.62,0,51.81-23.2,51.81-51.81,0-15.45,2.98-30.83,8.87-45.95,1.71-4.39,3.67-8.76,5.87-13.1l18.77,13.07c9.06,6.31,21.53,4.08,27.84-4.98s4.08-21.53-4.98-27.84l-19.29-13.43c-.08-.05-.16-.1-.24-.15l2.88-3.57,19.29,13.43c9.06,6.31,21.53,4.08,27.84-4.98,6.31-9.06,4.08-21.53-4.98-27.84ZM23.28,162.31c-4.91,0-8.88-3.98-8.88-8.88s3.98-8.88,8.88-8.88,8.88,3.98,8.88,8.88-3.98,8.88-8.88,8.88ZM58.71,156.82c-4.91,0-8.88-3.98-8.88-8.88s3.98-8.88,8.88-8.88,8.88,3.98,8.88,8.88-3.98,8.88-8.88,8.88Z"/>
</svg>